# Blender 3.6.4
# www.blender.org
mtllib composite_cube_center_volume_mass.mtl
o Cube
v -0.627100 3.180725 -1.412366
v -1.618540 1.857817 -0.286773
v -0.283651 4.301877 0.207838
v -1.275092 2.978969 1.333431
v -2.329771 4.177184 -1.740969
v -3.321211 2.854276 -0.615376
v -1.986323 5.298337 -0.120765
v -2.977763 3.975428 1.004828
v -2.634315 5.096581 2.625032
v -1.642874 6.419489 1.499439
v 0.059797 5.423030 1.828041
v -0.931644 4.100122 2.953635
v 0.707789 5.624785 -0.917755
v -0.994882 6.621244 -1.246358
v 1.051237 6.745938 0.702448
v -0.651434 7.742397 0.373845
vn 0.4957 0.6615 -0.5628
vn -0.8513 0.4982 -0.1643
vn -0.4957 -0.6615 0.5628
vn 0.8513 -0.4982 0.1643
vn -0.1717 -0.5606 -0.8101
vn 0.1717 0.5606 0.8101
vt 0.625000 0.500000
vt 0.875000 0.500000
vt 0.875000 0.750000
vt 0.625000 0.750000
vt 0.625000 0.000000
vt 0.375000 0.000000
vt 0.625000 0.250000
vt 0.375000 0.250000
vt 0.125000 0.500000
vt 0.375000 0.500000
vt 0.375000 0.750000
vt 0.125000 0.750000
vt 0.625000 1.000000
vt 0.375000 1.000000
s 0
usemtl Material
f 1/1/1 5/2/1 7/3/1 3/4/1
f 7/5/2 8/6/2 9/6/2 10/5/2
f 8/6/2 7/5/2 5/7/2 6/8/2
f 6/9/3 2/10/3 4/11/3 8/12/3
f 2/10/4 1/1/4 3/4/4 4/11/4
f 6/8/5 5/7/5 1/1/5 2/10/5
f 12/11/6 11/4/6 10/13/6 9/14/6
f 8/12/3 4/11/3 12/11/3 9/12/3
f 3/4/5 7/3/5 14/3/5 13/4/5
f 4/11/4 3/4/4 11/4/4 12/11/4
f 13/4/1 14/3/1 16/3/1 15/4/1
f 7/5/2 10/5/2 16/5/2 14/5/2
f 10/13/6 11/4/6 15/4/6 16/13/6
f 11/4/4 3/4/4 13/4/4 15/4/4
o Cube.001
v -1.618540 1.857816 -0.286773
v 0.084131 0.861357 0.041830
v -0.627100 3.180724 -1.412366
v 1.075572 2.184265 -1.083763
v -1.275092 2.978969 1.333431
v 0.427579 1.982510 1.662034
v -0.283652 4.301877 0.207837
v 1.419020 3.305418 0.536440
v 2.410460 4.628326 -0.589153
v 0.707789 5.624785 -0.917756
v 0.364341 4.503632 -2.537960
v 2.067012 3.507173 -2.209356
v -2.329771 4.177183 -1.740969
v -1.986323 5.298336 -0.120766
v -1.338330 5.500091 -2.866562
v -0.994882 6.621244 -1.246359
vn -0.8513 0.4982 -0.1643
vn 0.1717 0.5606 0.8101
vn 0.8513 -0.4982 0.1643
vn -0.1717 -0.5606 -0.8101
vn -0.4957 -0.6615 0.5628
vn 0.4957 0.6615 -0.5628
vt 0.625000 0.500000
vt 0.875000 0.500000
vt 0.875000 0.750000
vt 0.625000 0.750000
vt 0.625000 0.000000
vt 0.375000 0.000000
vt 0.625000 0.250000
vt 0.375000 0.250000
vt 0.125000 0.500000
vt 0.375000 0.500000
vt 0.375000 0.750000
vt 0.125000 0.750000
vt 0.625000 1.000000
vt 0.375000 1.000000
s 0
usemtl Material.001
f 17/15/7 21/16/7 23/17/7 19/18/7
f 23/19/8 24/20/8 25/20/8 26/19/8
f 24/20/8 23/19/8 21/21/8 22/22/8
f 22/23/9 18/24/9 20/25/9 24/26/9
f 18/24/10 17/15/10 19/18/10 20/25/10
f 22/22/11 21/21/11 17/15/11 18/24/11
f 28/25/12 27/18/12 26/27/12 25/28/12
f 24/26/9 20/25/9 28/25/9 25/26/9
f 19/18/11 23/17/11 30/17/11 29/18/11
f 20/25/10 19/18/10 27/18/10 28/25/10
f 29/18/7 30/17/7 32/17/7 31/18/7
f 23/19/8 26/19/8 32/19/8 30/19/8
f 26/27/12 27/18/12 31/18/12 32/27/12
f 27/18/10 19/18/10 29/18/10 31/18/10
o Cube.002
v -0.931644 4.100122 2.953635
v 0.059797 5.423030 1.828041
v -1.275092 2.978969 1.333431
v -0.283651 4.301877 0.207838
v 0.771027 3.103663 3.282238
v 1.762468 4.426571 2.156644
v 0.427579 1.982510 1.662034
v 1.419020 3.305418 0.536441
v 1.051237 6.745938 0.702448
v 0.707789 5.624785 -0.917756
v 2.410460 4.628326 -0.589153
v 2.753908 5.749479 1.031051
vn -0.8513 0.4982 -0.1643
vn -0.1717 -0.5606 -0.8101
vn 0.8513 -0.4982 0.1643
vn 0.1717 0.5606 0.8101
vn -0.4957 -0.6615 0.5628
vn 0.4957 0.6615 -0.5628
vt 0.375000 0.000000
vt 0.625000 0.000000
vt 0.625000 0.250000
vt 0.375000 0.250000
vt 0.625000 0.500000
vt 0.375000 0.500000
vt 0.625000 0.750000
vt 0.375000 0.750000
vt 0.625000 1.000000
vt 0.375000 1.000000
vt 0.125000 0.500000
vt 0.125000 0.750000
vt 0.875000 0.500000
vt 0.875000 0.750000
s 0
f 33/29/13 34/30/13 36/31/13 35/32/13
f 35/32/14 36/31/14 40/33/14 39/34/14
f 39/34/15 40/33/15 38/35/15 37/36/15
f 37/36/16 38/35/16 34/37/16 33/38/16
f 35/39/17 39/34/17 37/36/17 33/40/17
f 38/35/15 40/33/15 43/33/15 44/35/15
f 43/33/18 42/41/18 41/42/18 44/35/18
f 36/31/13 34/30/13 41/30/13 42/31/13
f 34/37/16 38/35/16 44/35/16 41/37/16
f 40/33/14 36/31/14 42/31/14 43/33/14
