# Blender 3.6.4
# www.blender.org
mtllib one_chain.mtl
o Torus.001
v 1.267954 -2.330273 -2.658117
v 1.457053 -2.119671 -2.631426
v 1.485325 -1.839768 -2.590446
v 1.341972 -1.597479 -2.550831
v 1.081748 -1.485348 -2.527712
v 0.804052 -1.546206 -2.529919
v 0.614952 -1.756808 -2.556611
v 0.586680 -2.036710 -2.597590
v 0.730034 -2.279000 -2.637206
v 0.990257 -2.391131 -2.660325
v 1.062975 -1.847638 -3.880748
v 1.259081 -1.653534 -3.812262
v 1.305698 -1.416825 -3.661864
v 1.185019 -1.227924 -3.487001
v 0.943140 -1.158987 -3.354463
v 0.672450 -1.236343 -3.314877
v 0.476344 -1.430447 -3.383362
v 0.429728 -1.667156 -3.533760
v 0.550406 -1.856056 -3.708624
v 0.792285 -1.924994 -3.841161
v 0.565685 -0.907443 -4.679818
v 0.778790 -0.745479 -4.584018
v 0.869911 -0.592911 -4.362107
v 0.804243 -0.508016 -4.098850
v 0.606869 -0.523220 -3.894800
v 0.353178 -0.632716 -3.827899
v 0.140073 -0.794680 -3.923699
v 0.048952 -0.947248 -4.145609
v 0.114620 -1.032143 -4.408867
v 0.311994 -1.016939 -4.612917
v -0.090669 0.238387 -4.841218
v 0.144873 0.361183 -4.739900
v 0.294734 0.411205 -4.503546
v 0.301672 0.369348 -4.222434
v 0.163038 0.251598 -4.003940
v -0.068216 0.102934 -3.931521
v -0.303758 -0.019862 -4.032839
v -0.453619 -0.069884 -4.269194
v -0.460557 -0.028027 -4.550305
v -0.321923 0.089723 -4.768799
v -0.730216 1.282829 -4.321701
v -0.472812 1.369922 -4.238142
v -0.265715 1.326473 -4.048282
v -0.188030 1.169078 -3.824639
v -0.269429 0.957857 -3.652639
v -0.478820 0.773490 -3.597980
v -0.736224 0.686397 -3.681538
v -0.943321 0.729846 -3.871399
v -1.021007 0.887241 -4.095041
v -0.939608 1.098462 -4.267042
v -1.181591 1.946025 -3.260471
v -0.908757 2.010447 -3.213189
v -0.661265 1.907646 -3.118302
v -0.533648 1.676888 -3.012054
v -0.574651 1.406315 -2.935028
v -0.768613 1.199277 -2.916645
v -1.041447 1.134855 -2.963927
v -1.288939 1.237656 -3.058814
v -1.416556 1.468414 -3.165062
v -1.375553 1.738987 -3.242088
v -1.323848 2.050272 -1.941883
v -1.046151 2.111131 -1.939675
v -0.785928 1.999000 -1.962794
v -0.642574 1.756710 -2.002410
v -0.670847 1.476808 -2.043389
v -0.859946 1.266206 -2.070081
v -1.137642 1.205348 -2.072289
v -1.397866 1.317479 -2.049169
v -1.541219 1.559768 -2.009554
v -1.512947 1.839671 -1.968575
v -1.118869 1.567638 -0.719253
v -0.848180 1.644995 -0.758839
v -0.606301 1.576057 -0.891376
v -0.485622 1.387157 -1.066240
v -0.532239 1.150447 -1.216638
v -0.728345 0.956344 -1.285123
v -0.999034 0.878987 -1.245537
v -1.240913 0.947925 -1.113000
v -1.361592 1.136825 -0.938136
v -1.314975 1.373535 -0.787738
v -0.621579 0.627443 0.079818
v -0.367888 0.736939 0.012917
v -0.170514 0.752143 -0.191133
v -0.104846 0.667248 -0.454391
v -0.195967 0.514680 -0.676300
v -0.409072 0.352716 -0.772101
v -0.662763 0.243220 -0.705200
v -0.860137 0.228016 -0.501150
v -0.925805 0.312911 -0.237893
v -0.834684 0.465478 -0.015982
v 0.034775 -0.518388 0.241218
v 0.266029 -0.369723 0.168799
v 0.404663 -0.251974 -0.049695
v 0.397725 -0.210116 -0.330806
v 0.247864 -0.260138 -0.567161
v 0.012322 -0.382934 -0.668479
v -0.218932 -0.531599 -0.596060
v -0.357566 -0.649348 -0.377566
v -0.350628 -0.691205 -0.096454
v -0.200767 -0.641183 0.139900
v 0.674322 -1.562829 -0.278299
v 0.883714 -1.378462 -0.332958
v 0.965113 -1.167241 -0.504959
v 0.887427 -1.009846 -0.728601
v 0.680330 -0.966397 -0.918462
v 0.422926 -1.053490 -1.002021
v 0.213534 -1.237857 -0.947361
v 0.132136 -1.449078 -0.775361
v 0.209821 -1.606473 -0.551718
v 0.416918 -1.649922 -0.361858
v 1.125697 -2.226026 -1.339529
v 1.319659 -2.018987 -1.357912
v 1.360662 -1.748414 -1.434938
v 1.233045 -1.517656 -1.541186
v 0.985553 -1.414855 -1.636073
v 0.712719 -1.479277 -1.683355
v 0.518757 -1.686315 -1.664972
v 0.477754 -1.956888 -1.587946
v 0.605371 -2.187646 -1.481698
v 0.852863 -2.290447 -1.386811
vn 0.7172 -0.5988 -0.3566
vn 0.9788 -0.0708 -0.1920
vn 0.8632 0.5020 0.0534
vn 0.4009 0.8731 0.2775
vn -0.2002 0.8994 0.3886
vn -0.7172 0.5988 0.3566
vn -0.9788 0.0708 0.1920
vn -0.8632 -0.5020 -0.0534
vn -0.4009 -0.8731 -0.2775
vn 0.2002 -0.8994 -0.3886
vn 0.5822 -0.3253 -0.7451
vn 0.8938 0.1015 -0.4368
vn 0.4859 0.7008 0.5222
vn -0.0652 0.6260 0.7771
vn -0.5822 0.3253 0.7451
vn -0.8938 -0.1015 0.4368
vn -0.4859 -0.7008 -0.5222
vn 0.0652 -0.6260 -0.7771
vn 0.3605 0.0756 -0.9297
vn 0.7541 0.3541 -0.5531
vn 0.6256 0.4483 0.6385
vn 0.1565 0.2251 0.9617
vn -0.3605 -0.0756 0.9297
vn -0.7541 -0.3541 0.5531
vn -0.6256 -0.4483 -0.6385
vn -0.1565 -0.2251 -0.9617
vn 0.1115 0.4965 -0.8609
vn 0.5972 0.6193 -0.5097
vn 0.7825 0.1831 0.5952
vn 0.4055 -0.1958 0.8929
vn -0.1115 -0.4965 0.8609
vn -0.5972 -0.6193 0.5097
vn -0.7825 -0.1831 -0.5952
vn -0.4055 0.1958 -0.8929
vn -0.0982 0.8246 -0.5571
vn 0.4652 0.8260 -0.3184
vn 0.9146 -0.0236 0.4038
vn 0.6151 -0.5240 0.5891
vn 0.0982 -0.8246 0.5571
vn -0.4652 -0.8260 0.3184
vn -0.9146 0.0236 -0.4038
vn -0.6151 0.5240 -0.5891
vn -0.2122 0.9721 -0.0998
vn 0.3933 0.9189 -0.0302
vn 0.9864 -0.1166 0.1156
vn 0.7292 -0.6715 0.1318
vn 0.2122 -0.9721 0.0998
vn -0.3933 -0.9189 0.0302
vn -0.9864 0.1166 -0.1156
vn -0.7292 0.6715 -0.1318
vn 0.9146 -0.0237 0.4038
vn -0.9146 0.0237 -0.4038
vt 0.500000 0.600000
vt 0.583333 0.600000
vt 0.583333 0.700000
vt 0.500000 0.700000
vt 0.583333 0.800000
vt 0.500000 0.800000
vt 0.583333 0.900000
vt 0.500000 0.900000
vt 0.583333 1.000000
vt 0.500000 1.000000
vt 0.500000 -0.000000
vt 0.583333 -0.000000
vt 0.583333 0.100000
vt 0.500000 0.100000
vt 0.583333 0.200000
vt 0.500000 0.200000
vt 0.583333 0.300000
vt 0.500000 0.300000
vt 0.583333 0.400000
vt 0.500000 0.400000
vt 0.583333 0.500000
vt 0.500000 0.500000
vt 0.666667 0.600000
vt 0.666667 0.700000
vt 0.666667 0.800000
vt 0.666667 0.900000
vt 0.666667 1.000000
vt 0.666667 -0.000000
vt 0.666667 0.100000
vt 0.666667 0.200000
vt 0.666667 0.300000
vt 0.666667 0.400000
vt 0.666667 0.500000
vt 0.750000 0.600000
vt 0.750000 0.700000
vt 0.750000 0.800000
vt 0.750000 0.900000
vt 0.750000 1.000000
vt 0.750000 -0.000000
vt 0.750000 0.100000
vt 0.750000 0.200000
vt 0.750000 0.300000
vt 0.750000 0.400000
vt 0.750000 0.500000
vt 0.833333 0.600000
vt 0.833333 0.700000
vt 0.833333 0.800000
vt 0.833333 0.900000
vt 0.833333 1.000000
vt 0.833333 -0.000000
vt 0.833333 0.100000
vt 0.833333 0.200000
vt 0.833333 0.300000
vt 0.833333 0.400000
vt 0.833333 0.500000
vt 0.916667 0.600000
vt 0.916667 0.700000
vt 0.916667 0.800000
vt 0.916667 0.900000
vt 0.916667 1.000000
vt 0.916667 -0.000000
vt 0.916667 0.100000
vt 0.916667 0.200000
vt 0.916667 0.300000
vt 0.916667 0.400000
vt 0.916667 0.500000
vt 1.000000 0.600000
vt 1.000000 0.700000
vt 1.000000 0.800000
vt 1.000000 0.900000
vt 1.000000 1.000000
vt 1.000000 -0.000000
vt 1.000000 0.100000
vt 1.000000 0.200000
vt 1.000000 0.300000
vt 1.000000 0.400000
vt 1.000000 0.500000
vt 0.000000 0.600000
vt 0.083333 0.600000
vt 0.083333 0.700000
vt 0.000000 0.700000
vt 0.083333 0.800000
vt 0.000000 0.800000
vt 0.083333 0.900000
vt 0.000000 0.900000
vt 0.083333 1.000000
vt 0.000000 1.000000
vt 0.000000 -0.000000
vt 0.083333 -0.000000
vt 0.083333 0.100000
vt 0.000000 0.100000
vt 0.083333 0.200000
vt 0.000000 0.200000
vt 0.083333 0.300000
vt 0.000000 0.300000
vt 0.083333 0.400000
vt 0.000000 0.400000
vt 0.083333 0.500000
vt 0.000000 0.500000
vt 0.166667 0.600000
vt 0.166667 0.700000
vt 0.166667 0.800000
vt 0.166667 0.900000
vt 0.166667 1.000000
vt 0.166667 -0.000000
vt 0.166667 0.100000
vt 0.166667 0.200000
vt 0.166667 0.300000
vt 0.166667 0.400000
vt 0.166667 0.500000
vt 0.250000 0.600000
vt 0.250000 0.700000
vt 0.250000 0.800000
vt 0.250000 0.900000
vt 0.250000 1.000000
vt 0.250000 -0.000000
vt 0.250000 0.100000
vt 0.250000 0.200000
vt 0.250000 0.300000
vt 0.250000 0.400000
vt 0.250000 0.500000
vt 0.333333 0.600000
vt 0.333333 0.700000
vt 0.333333 0.800000
vt 0.333333 0.900000
vt 0.333333 1.000000
vt 0.333333 -0.000000
vt 0.333333 0.100000
vt 0.333333 0.200000
vt 0.333333 0.300000
vt 0.333333 0.400000
vt 0.333333 0.500000
vt 0.416667 0.600000
vt 0.416667 0.700000
vt 0.416667 0.800000
vt 0.416667 0.900000
vt 0.416667 1.000000
vt 0.416667 -0.000000
vt 0.416667 0.100000
vt 0.416667 0.200000
vt 0.416667 0.300000
vt 0.416667 0.400000
vt 0.416667 0.500000
s 0
f 1/1/1 11/2/1 12/3/1 2/4/1
f 2/4/2 12/3/2 13/5/2 3/6/2
f 3/6/3 13/5/3 14/7/3 4/8/3
f 4/8/4 14/7/4 15/9/4 5/10/4
f 5/11/5 15/12/5 16/13/5 6/14/5
f 6/14/6 16/13/6 17/15/6 7/16/6
f 7/16/7 17/15/7 18/17/7 8/18/7
f 8/18/8 18/17/8 19/19/8 9/20/8
f 9/20/9 19/19/9 20/21/9 10/22/9
f 10/22/10 20/21/10 11/2/10 1/1/10
f 11/2/11 21/23/11 22/24/11 12/3/11
f 12/3/12 22/24/12 23/25/12 13/5/12
f 13/5/3 23/25/3 24/26/3 14/7/3
f 14/7/13 24/26/13 25/27/13 15/9/13
f 15/12/14 25/28/14 26/29/14 16/13/14
f 16/13/15 26/29/15 27/30/15 17/15/15
f 17/15/16 27/30/16 28/31/16 18/17/16
f 18/17/8 28/31/8 29/32/8 19/19/8
f 19/19/17 29/32/17 30/33/17 20/21/17
f 20/21/18 30/33/18 21/23/18 11/2/18
f 21/23/19 31/34/19 32/35/19 22/24/19
f 22/24/20 32/35/20 33/36/20 23/25/20
f 23/25/3 33/36/3 34/37/3 24/26/3
f 24/26/21 34/37/21 35/38/21 25/27/21
f 25/28/22 35/39/22 36/40/22 26/29/22
f 26/29/23 36/40/23 37/41/23 27/30/23
f 27/30/24 37/41/24 38/42/24 28/31/24
f 28/31/8 38/42/8 39/43/8 29/32/8
f 29/32/25 39/43/25 40/44/25 30/33/25
f 30/33/26 40/44/26 31/34/26 21/23/26
f 31/34/27 41/45/27 42/46/27 32/35/27
f 32/35/28 42/46/28 43/47/28 33/36/28
f 33/36/3 43/47/3 44/48/3 34/37/3
f 34/37/29 44/48/29 45/49/29 35/38/29
f 35/39/30 45/50/30 46/51/30 36/40/30
f 36/40/31 46/51/31 47/52/31 37/41/31
f 37/41/32 47/52/32 48/53/32 38/42/32
f 38/42/8 48/53/8 49/54/8 39/43/8
f 39/43/33 49/54/33 50/55/33 40/44/33
f 40/44/34 50/55/34 41/45/34 31/34/34
f 41/45/35 51/56/35 52/57/35 42/46/35
f 42/46/36 52/57/36 53/58/36 43/47/36
f 43/47/3 53/58/3 54/59/3 44/48/3
f 44/48/37 54/59/37 55/60/37 45/49/37
f 45/50/38 55/61/38 56/62/38 46/51/38
f 46/51/39 56/62/39 57/63/39 47/52/39
f 47/52/40 57/63/40 58/64/40 48/53/40
f 48/53/8 58/64/8 59/65/8 49/54/8
f 49/54/41 59/65/41 60/66/41 50/55/41
f 50/55/42 60/66/42 51/56/42 41/45/42
f 51/56/43 61/67/43 62/68/43 52/57/43
f 52/57/44 62/68/44 63/69/44 53/58/44
f 53/58/3 63/69/3 64/70/3 54/59/3
f 54/59/45 64/70/45 65/71/45 55/60/45
f 55/61/46 65/72/46 66/73/46 56/62/46
f 56/62/47 66/73/47 67/74/47 57/63/47
f 57/63/48 67/74/48 68/75/48 58/64/48
f 58/64/8 68/75/8 69/76/8 59/65/8
f 59/65/49 69/76/49 70/77/49 60/66/49
f 60/66/50 70/77/50 61/67/50 51/56/50
f 61/78/5 71/79/5 72/80/5 62/81/5
f 62/81/4 72/80/4 73/82/4 63/83/4
f 63/83/3 73/82/3 74/84/3 64/85/3
f 64/85/2 74/84/2 75/86/2 65/87/2
f 65/88/1 75/89/1 76/90/1 66/91/1
f 66/91/10 76/90/10 77/92/10 67/93/10
f 67/93/9 77/92/9 78/94/9 68/95/9
f 68/95/8 78/94/8 79/96/8 69/97/8
f 69/97/7 79/96/7 80/98/7 70/99/7
f 70/99/6 80/98/6 71/79/6 61/78/6
f 71/79/14 81/100/14 82/101/14 72/80/14
f 72/80/13 82/101/13 83/102/13 73/82/13
f 73/82/3 83/102/3 84/103/3 74/84/3
f 74/84/12 84/103/12 85/104/12 75/86/12
f 75/89/11 85/105/11 86/106/11 76/90/11
f 76/90/18 86/106/18 87/107/18 77/92/18
f 77/92/17 87/107/17 88/108/17 78/94/17
f 78/94/8 88/108/8 89/109/8 79/96/8
f 79/96/16 89/109/16 90/110/16 80/98/16
f 80/98/15 90/110/15 81/100/15 71/79/15
f 81/100/22 91/111/22 92/112/22 82/101/22
f 82/101/21 92/112/21 93/113/21 83/102/21
f 83/102/3 93/113/3 94/114/3 84/103/3
f 84/103/20 94/114/20 95/115/20 85/104/20
f 85/105/19 95/116/19 96/117/19 86/106/19
f 86/106/26 96/117/26 97/118/26 87/107/26
f 87/107/25 97/118/25 98/119/25 88/108/25
f 88/108/8 98/119/8 99/120/8 89/109/8
f 89/109/24 99/120/24 100/121/24 90/110/24
f 90/110/23 100/121/23 91/111/23 81/100/23
f 91/111/30 101/122/30 102/123/30 92/112/30
f 92/112/29 102/123/29 103/124/29 93/113/29
f 93/113/3 103/124/3 104/125/3 94/114/3
f 94/114/28 104/125/28 105/126/28 95/115/28
f 95/116/27 105/127/27 106/128/27 96/117/27
f 96/117/34 106/128/34 107/129/34 97/118/34
f 97/118/33 107/129/33 108/130/33 98/119/33
f 98/119/8 108/130/8 109/131/8 99/120/8
f 99/120/32 109/131/32 110/132/32 100/121/32
f 100/121/31 110/132/31 101/122/31 91/111/31
f 101/122/38 111/133/38 112/134/38 102/123/38
f 102/123/51 112/134/51 113/135/51 103/124/51
f 103/124/3 113/135/3 114/136/3 104/125/3
f 104/125/36 114/136/36 115/137/36 105/126/36
f 105/127/35 115/138/35 116/139/35 106/128/35
f 106/128/42 116/139/42 117/140/42 107/129/42
f 107/129/52 117/140/52 118/141/52 108/130/52
f 108/130/8 118/141/8 119/142/8 109/131/8
f 109/131/40 119/142/40 120/143/40 110/132/40
f 110/132/39 120/143/39 111/133/39 101/122/39
f 111/133/46 1/1/46 2/4/46 112/134/46
f 112/134/45 2/4/45 3/6/45 113/135/45
f 113/135/3 3/6/3 4/8/3 114/136/3
f 114/136/44 4/8/44 5/10/44 115/137/44
f 115/138/43 5/11/43 6/14/43 116/139/43
f 116/139/50 6/14/50 7/16/50 117/140/50
f 117/140/49 7/16/49 8/18/49 118/141/49
f 118/141/8 8/18/8 9/20/8 119/142/8
f 119/142/48 9/20/48 10/22/48 120/143/48
f 120/143/47 10/22/47 1/1/47 111/133/47
